<?xml version="1.0" encoding="utf-8"?>
<!-- Generator: Adobe Illustrator 22.0.1, SVG Export Plug-In . SVG Version: 6.00 Build 0)  -->
<svg version="1.1" id="Layer_1" xmlns="http://www.w3.org/2000/svg" xmlns:xlink="http://www.w3.org/1999/xlink" x="0px" y="0px"
	 viewBox="0 0 394 68" style="enable-background:new 0 0 394 68;" xml:space="preserve">
<style type="text/css">
	.st0{fill:#FFFFFF;}
	.st1{font-family:'LaoMN';}
	.st2{font-size:64.0525px;}
	.st3{font-size:68.4669px;}
</style>
<path class="st0" d="M173.9,10.1h10.5L199.5,40l15-29.9h10.2v43.8H214V25.4l-14.3,28.5h-4.2L180.7,25v28.9h-6.8V10.1z M227.6,21.9
	h10.1l10,19.4l8.8-19.4h6.8l-15.8,35c-0.6,1.2-1.3,2.3-2.2,3.4c-0.9,1-1.8,1.9-2.9,2.6c-1,0.7-2.1,1.3-3.3,1.7
	c-1.2,0.4-2.3,0.6-3.4,0.6c-0.8,0-1.6-0.1-2.4-0.3c-0.8-0.2-1.4-0.5-2-0.9c-0.6-0.4-1-0.8-1.3-1.3c-0.3-0.5-0.5-1-0.5-1.6
	c0-0.4,0.1-0.8,0.2-1.2c0.1-0.4,0.4-0.8,0.7-1.1c0.3-0.3,0.8-0.6,1.4-0.8c0.6-0.2,1.3-0.3,2.1-0.3c0.6,0,1,0.1,1.4,0.3
	c0.4,0.2,0.7,0.4,1,0.6c0.3,0.2,0.6,0.4,0.9,0.6c0.3,0.2,0.7,0.3,1.1,0.3c0.3,0,0.6-0.2,1-0.5c0.3-0.4,0.7-0.8,1-1.3
	s0.6-1.1,0.9-1.7c0.3-0.6,0.5-1.1,0.7-1.6l1.1-2.5L227.6,21.9z M268.4,45.1c0.6,1.7,1.4,3,2.4,4s2.3,1.5,3.9,1.5
	c0.7,0,1.3-0.1,1.8-0.3s1-0.4,1.4-0.7s0.7-0.6,0.9-1c0.2-0.4,0.3-0.8,0.3-1.3c0-0.7-0.1-1.4-0.4-2s-0.7-1.1-1.2-1.6
	s-1.1-0.9-1.8-1.3c-0.7-0.4-1.4-0.8-2.2-1.1c-1.2-0.5-2.5-1.1-3.7-1.8s-2.3-1.4-3.3-2.2c-1-0.8-1.8-1.8-2.4-2.8
	c-0.6-1.1-0.9-2.3-0.9-3.7c0-1.3,0.3-2.5,0.8-3.6c0.6-1.1,1.3-2,2.3-2.8c1-0.8,2.2-1.4,3.6-1.8c1.4-0.4,2.9-0.6,4.6-0.6
	c1.5,0,2.9,0.1,4.1,0.4c1.2,0.3,2.2,0.7,3.1,1.2c0.9,0.5,1.7,1.2,2.4,1.9s1.3,1.6,1.9,2.6l-5.5,1.9c-0.3-1-0.6-1.8-1.1-2.4
	s-0.8-1-1.3-1.2c-0.4-0.3-0.9-0.4-1.3-0.5s-0.8-0.1-1.2-0.1c-0.6,0-1.1,0.1-1.7,0.2c-0.5,0.1-1,0.3-1.4,0.6c-0.4,0.2-0.7,0.6-1,0.9
	c-0.2,0.4-0.4,0.8-0.4,1.3c0,0.6,0.2,1.2,0.5,1.7s0.7,1,1.3,1.5c0.5,0.5,1.2,0.9,1.9,1.3s1.6,0.8,2.4,1.2c1.3,0.5,2.7,1.2,3.9,1.8
	s2.4,1.4,3.4,2.3s1.8,1.8,2.4,2.8c0.6,1,0.9,2.2,0.9,3.5c0,1.4-0.2,2.6-0.7,3.8c-0.4,1.2-1.2,2.2-2.2,3.1c-1,0.9-2.3,1.6-3.9,2.1
	s-3.6,0.8-5.9,0.8c-2,0-3.6-0.2-5-0.7s-2.5-1-3.5-1.7c-0.9-0.7-1.7-1.5-2.3-2.4s-1.2-1.7-1.6-2.6L268.4,45.1z M289.3,26.3v-3.2
	c1.1,0,2.2-0.3,3.2-0.8c1-0.6,1.9-1.3,2.7-2.3c0.8-1,1.5-2.1,2.1-3.4c0.6-1.3,1-2.7,1.3-4.1h5.3v10h7.8v3.8h-7.8v20.3
	c0,0.6,0.2,1.2,0.5,1.6s0.8,0.7,1.3,0.7c0.3,0,0.7-0.1,1.1-0.3c0.4-0.2,0.8-0.5,1.1-0.8s0.7-0.6,1-0.9c0.3-0.3,0.5-0.5,0.6-0.7
	l3.3,2.6c-0.5,0.8-1.1,1.6-1.7,2.3c-0.6,0.7-1.4,1.3-2.2,1.8c-0.8,0.5-1.8,0.9-2.8,1.2c-1.1,0.3-2.3,0.4-3.7,0.4
	c-1.3,0-2.5-0.2-3.5-0.6c-1-0.4-1.8-0.9-2.5-1.6c-0.7-0.7-1.2-1.5-1.5-2.4c-0.3-0.9-0.5-2-0.5-3.1V26.3H289.3z M314.7,12.4
	c0-0.6,0.1-1.2,0.4-1.8c0.3-0.6,0.6-1.1,1.1-1.5c0.5-0.4,1-0.8,1.6-1c0.6-0.2,1.3-0.4,2-0.4c0.7,0,1.4,0.1,2,0.4
	c0.6,0.2,1.2,0.6,1.6,1c0.5,0.4,0.8,0.9,1.1,1.5c0.3,0.6,0.4,1.2,0.4,1.8s-0.1,1.2-0.4,1.8c-0.3,0.6-0.6,1.1-1.1,1.5s-1,0.7-1.6,1
	c-0.6,0.2-1.3,0.4-2,0.4c-0.7,0-1.4-0.1-2-0.4c-0.6-0.2-1.2-0.6-1.6-1s-0.8-0.9-1.1-1.5C314.8,13.7,314.7,13.1,314.7,12.4z
	 M315.1,24.2l9.5-2.6v32.4h-9.5V24.2z M345,25.7c-1,0-1.9,0.3-2.8,0.8c-0.8,0.5-1.5,1.2-2.1,2.1c-0.6,0.9-1,1.9-1.3,3
	s-0.5,2.3-0.5,3.6c0,1.8,0.2,3.4,0.6,5c0.4,1.6,1,3,1.7,4.2c0.7,1.2,1.6,2.2,2.6,2.9c1,0.7,2.2,1.1,3.4,1.1c1.1,0,2-0.2,2.9-0.6
	c0.8-0.4,1.6-1,2.3-1.7s1.3-1.6,1.9-2.6c0.6-1,1.1-2,1.6-3.1l4.5,1.2c-0.5,2.1-1.3,3.9-2.2,5.5s-2.1,3-3.4,4.1
	c-1.3,1.1-2.8,1.9-4.4,2.5s-3.4,0.9-5.4,0.9c-2.2,0-4.2-0.4-6.1-1.2s-3.6-2-5-3.4c-1.4-1.4-2.5-3.1-3.4-5c-0.8-1.9-1.2-3.9-1.2-6
	c0-2.3,0.4-4.5,1.3-6.6c0.9-2.1,2.1-3.9,3.6-5.4s3.3-2.8,5.3-3.7c2-0.9,4.2-1.3,6.5-1.3c1.9,0,3.7,0.2,5.2,0.6
	c1.6,0.4,2.9,0.9,4,1.6s2,1.5,2.5,2.5c0.6,1,0.9,2,0.9,3.1c0,0.5-0.2,1-0.5,1.5s-0.7,0.9-1.2,1.2c-0.5,0.4-1.1,0.6-1.7,0.8
	s-1.3,0.3-2,0.3c-0.8,0-1.4-0.1-2-0.3c-0.6-0.2-1-0.5-1.4-0.8c-0.4-0.3-0.7-0.7-0.9-1.2c-0.2-0.4-0.3-0.9-0.3-1.4s0-1-0.1-1.5
	s-0.2-0.9-0.4-1.3c-0.2-0.4-0.5-0.7-0.9-1C346.3,25.8,345.7,25.7,345,25.7z M367.2,45.1c0.6,1.7,1.4,3,2.4,4s2.3,1.5,3.9,1.5
	c0.7,0,1.3-0.1,1.8-0.3s1-0.4,1.4-0.7s0.7-0.6,0.9-1c0.2-0.4,0.3-0.8,0.3-1.3c0-0.7-0.1-1.4-0.4-2s-0.7-1.1-1.2-1.6
	s-1.1-0.9-1.8-1.3c-0.7-0.4-1.4-0.8-2.2-1.1c-1.2-0.5-2.5-1.1-3.7-1.8s-2.3-1.4-3.3-2.2c-1-0.8-1.8-1.8-2.4-2.8
	c-0.6-1.1-0.9-2.3-0.9-3.7c0-1.3,0.3-2.5,0.8-3.6c0.6-1.1,1.3-2,2.3-2.8c1-0.8,2.2-1.4,3.6-1.8c1.4-0.4,2.9-0.6,4.6-0.6
	c1.5,0,2.9,0.1,4.1,0.4c1.2,0.3,2.2,0.7,3.1,1.2c0.9,0.5,1.7,1.2,2.4,1.9s1.3,1.6,1.9,2.6l-5.5,1.9c-0.3-1-0.6-1.8-1.1-2.4
	s-0.8-1-1.3-1.2c-0.4-0.3-0.9-0.4-1.3-0.5s-0.8-0.1-1.2-0.1c-0.6,0-1.1,0.1-1.7,0.2c-0.5,0.1-1,0.3-1.4,0.6c-0.4,0.2-0.7,0.6-1,0.9
	c-0.2,0.4-0.4,0.8-0.4,1.3c0,0.6,0.2,1.2,0.5,1.7s0.7,1,1.3,1.5c0.5,0.5,1.2,0.9,1.9,1.3s1.6,0.8,2.4,1.2c1.3,0.5,2.7,1.2,3.9,1.8
	s2.4,1.4,3.4,2.3s1.8,1.8,2.4,2.8c0.6,1,0.9,2.2,0.9,3.5c0,1.4-0.2,2.6-0.7,3.8c-0.4,1.2-1.2,2.2-2.2,3.1c-1,0.9-2.3,1.6-3.9,2.1
	s-3.6,0.8-5.9,0.8c-2,0-3.6-0.2-5-0.7s-2.5-1-3.5-1.7c-0.9-0.7-1.7-1.5-2.3-2.4s-1.2-1.7-1.6-2.6L367.2,45.1z"/>
<text transform="matrix(1.0218 0 0 1 55.3468 53.9185)" class="st0 st1 st2">ruvi </text>
<text transform="matrix(1.0218 0 0 1 2.4274 53.8496)" class="st0 st1 st3">G</text>
</svg>
